PathFileType  4	(X/Y/Z) C:\Users\antoi\Documents\MyRepositories\mobilecap\ResultsAnalysis
DataRate	CameraRate	NumFrames	NumMarkers	Units	OrigDataRate	OrigDataStartFrame	OrigNumFrames
100.0	100.0	4	51	mm	100.0	323	861
Frame#	Time	r_knee			r_shank_antsup			r_ankle			r_calc			r_5meta			r_toe			L_knee			L_shank_antsup			L_ankle			L_calc			L_5meta			L_toe			r_sh2			r_sh3			r_sh4			L_sh2			L_sh3			r_thigh1			r_thigh2			r_thigh3			r_thigh4			r_thigh5			L_thigh1			L_thigh2			L_thigh3			L_thigh4			r.ASIS			r.PSIS			L.ASIS			L.PSIS			C7			R_Shoulder			L_Shoulder			R_Sternum			L_Sternum			R_humerus			R_elbow_med			R_elbow_lat			R_forearm			R_wrist_radius			R_wrist_ulna			L_humerus			L_elbow_med			L_elbow_lat			L_forearm			L_wrist_radius			L_wrist_ulna			R_HJC			L_HJC			R_HJC_reg			L_HJC_reg			
		X1	Y1	Z1	X2	Y2	Z2	X3	Y3	Z3	X4	Y4	Z4	X5	Y5	Z5	X6	Y6	Z6	X7	Y7	Z7	X8	Y8	Z8	X9	Y9	Z9	X10	Y10	Z10	X11	Y11	Z11	X12	Y12	Z12	X13	Y13	Z13	X14	Y14	Z14	X15	Y15	Z15	X16	Y16	Z16	X17	Y17	Z17	X18	Y18	Z18	X19	Y19	Z19	X20	Y20	Z20	X21	Y21	Z21	X22	Y22	Z22	X23	Y23	Z23	X24	Y24	Z24	X25	Y25	Z25	X26	Y26	Z26	X27	Y27	Z27	X28	Y28	Z28	X29	Y29	Z29	X30	Y30	Z30	X31	Y31	Z31	X32	Y32	Z32	X33	Y33	Z33	X34	Y34	Z34	X35	Y35	Z35	X36	Y36	Z36	X37	Y37	Z37	X38	Y38	Z38	X39	Y39	Z39	X40	Y40	Z40	X41	Y41	Z41	X42	Y42	Z42	X43	Y43	Z43	X44	Y44	Z44	X45	Y45	Z45	X46	Y46	Z46	X47	Y47	Z47	X48	Y48	Z48	X49	Y49	Z49	X50	Y50	Z50	X51	Y51	Z51	

323	3.22000000	-216.29086	581.39368	-386.55770	-172.09669	448.14427	-367.16574	-297.25296	105.76548	-335.19384	-353.99105	69.77495	-396.86274	-167.30897	48.30077	-291.05112	-127.62469	77.15370	-340.10551	-203.62916	567.64332	-877.11460	-158.04098	380.32473	-883.55079	-314.91575	114.12970	-915.02452	-376.31176	71.03348	-857.83434	-185.88866	43.42094	-970.44914	-140.41494	71.53512	-913.37087	-194.45595	337.30882	-361.98483	-240.25381	460.39755	-339.01874	-265.17641	351.84603	-322.89237	-226.11997	413.68156	-932.91193	-265.23797	300.57807	-930.49846	-492.10276	669.11602	-411.57881	-382.02068	665.76421	-393.22761	-365.77426	599.57107	-380.07469	-500.21032	555.85103	-421.07320	-382.18979	549.27579	-401.75318	-470.13492	687.07259	-835.56516	-339.38316	670.52965	-856.12512	-496.24848	584.09945	-862.00351	-360.47160	569.58129	-892.14975	-547.01250	721.27390	-492.52091	-716.29552	762.82807	-600.82313	-533.35592	703.20921	-764.43576	-707.07654	762.81534	-688.88066	-372.61786	1135.05915	-631.77353	-291.12345	1096.09803	-484.95465	-294.22321	1106.15007	-771.54109	-275.72106	1001.24834	-603.39740	-273.94465	998.30047	-646.29551	-157.53500	927.00680	-382.20804	-138.75617	773.48489	-345.46829	-117.18099	842.59276	-290.43333	10.07913	907.21806	-450.40875	56.01754	936.34767	-517.09852	83.83951	914.79715	-498.14908	-125.52087	932.32369	-856.81349	-129.87492	798.48437	-893.02653	-87.11083	863.07603	-931.50770	32.90627	929.74794	-776.42425	62.59694	952.37736	-712.53262	87.74427	937.22876	-734.21932	-630.03802	631.65219	-532.01740	-621.86919	623.52989	-729.15779	-622.46489	633.83220	-539.20558	-603.71444	633.80589	-718.31188	
324	3.23000000	-218.31137	581.83067	-385.03588	-173.55583	448.63687	-365.95553	-297.35081	106.10300	-334.33623	-354.19714	69.90843	-396.78459	-167.55933	47.71712	-291.77424	-127.97227	77.47682	-340.06764	-205.38956	567.81530	-876.39891	-159.23184	381.05661	-883.08587	-315.24569	114.37047	-915.07219	-376.58499	71.11625	-857.85107	-185.85625	43.83948	-970.16611	-140.52417	71.91610	-912.93800	-195.49800	337.65508	-361.03186	-241.76330	460.60557	-337.27923	-266.01829	351.81190	-321.70748	-227.35530	414.08592	-932.37894	-266.07736	301.14523	-930.38573	-495.31107	665.50349	-411.03534	-385.21955	663.88844	-392.47148	-368.08720	597.86208	-378.90954	-501.70856	551.74343	-419.67931	-383.66418	547.22542	-400.26835	-473.49477	682.97327	-834.92919	-342.47117	668.63289	-855.46068	-498.15944	579.93168	-862.07013	-363.54189	566.83320	-890.15735	-551.29849	715.66429	-492.47604	-721.51872	754.53863	-600.92183	-537.96399	697.78620	-764.93634	-712.61097	754.70799	-688.80398	-379.80195	1129.82265	-632.17679	-298.12539	1091.13357	-485.44758	-301.59076	1101.29587	-771.95794	-282.29239	996.86045	-604.03019	-280.55317	993.77738	-646.85349	-163.45983	923.00059	-383.07189	-143.58406	769.49865	-346.46870	-122.22611	838.82863	-291.28894	4.86403	903.87083	-451.30288	51.31190	933.00422	-517.50374	78.70167	911.58422	-499.04608	-131.82744	928.64846	-856.97705	-135.20066	794.77466	-893.15019	-92.71569	859.69649	-931.68490	27.31392	926.61694	-776.62767	57.12766	949.21639	-712.85494	82.20254	933.90690	-734.14704	-633.07322	624.75210	-532.12304	-625.16640	616.74190	-729.27925	-625.42865	626.82448	-539.03617	-607.23446	627.16878	-718.54161	
325	3.24000000	-220.48756	582.38500	-383.31496	-175.22952	449.13104	-364.40295	-298.13241	105.66761	-334.59504	-354.46217	70.00639	-396.74888	-168.02467	46.72778	-292.92053	-128.29030	77.76591	-339.98144	-207.13429	568.25087	-876.15203	-160.49739	381.87524	-883.10570	-315.63800	114.54734	-915.20401	-376.86974	71.25767	-857.96367	-185.80572	44.20736	-969.92600	-140.59814	72.28044	-912.66846	-196.79334	338.05236	-359.83064	-243.34052	460.67066	-335.23223	-267.30147	351.56625	-320.40243	-228.69625	414.58478	-932.23899	-267.06439	301.63774	-930.44924	-497.89493	660.36072	-410.51684	-388.26849	662.36373	-391.61197	-370.37852	596.65953	-377.26687	-503.22342	548.10058	-417.78823	-385.22760	545.58698	-398.55227	-476.49531	679.87140	-834.15725	-345.13121	667.52034	-854.92153	-499.78063	577.08043	-862.58110	-367.54317	564.10703	-886.90811	-555.56650	710.67285	-492.13519	-727.21587	746.91947	-600.93282	-542.53772	693.93046	-764.84502	-718.39558	747.55239	-688.46219	-387.24354	1125.18278	-632.50697	-305.28195	1087.03568	-485.63103	-308.99199	1096.98947	-772.29854	-288.86679	992.84238	-604.78011	-287.25106	989.48993	-647.40792	-169.64375	919.37123	-384.02670	-148.98730	765.93063	-347.32987	-127.63420	835.34462	-292.20847	-0.57052	900.72084	-452.07309	46.63110	929.63075	-517.81967	73.40783	908.44492	-499.84768	-138.59957	925.41067	-857.42615	-140.90998	791.54838	-893.45306	-98.65978	856.73766	-931.93270	21.41949	923.69424	-776.99995	51.40799	946.25859	-713.17289	76.50939	931.00893	-734.62953	-636.15236	618.51293	-532.25157	-628.27650	611.23986	-729.43607	-628.45177	620.59458	-539.02089	-610.35113	621.89404	-718.63864	
326	3.25000000	-222.99168	583.13699	-381.13493	-177.19421	449.73709	-362.44478	-298.94507	105.24605	-334.89881	-354.76840	70.06405	-396.70993	-168.42006	46.24504	-293.41943	-128.57292	78.05902	-339.83145	-208.91896	569.05245	-876.43323	-161.84977	382.74669	-883.38334	-316.03246	114.69043	-915.42092	-377.11230	71.51952	-858.26443	-185.74692	44.48821	-969.79090	-140.68592	72.60245	-912.51837	-198.35766	338.54329	-358.35606	-245.19376	460.76787	-333.14091	-268.99814	351.58349	-318.86479	-230.11901	415.26331	-932.67420	-268.18809	302.03915	-930.68460	-500.46238	656.96160	-409.80698	-391.18886	661.48196	-390.62653	-372.68991	596.12618	-375.38664	-504.98323	545.75834	-415.76652	-387.00431	544.61371	-396.81710	-479.20348	678.60104	-833.44545	-347.33329	667.35724	-854.44604	-501.29184	575.88478	-863.30254	-369.41537	563.72822	-886.71502	-559.55584	707.02975	-491.29726	-732.92913	740.98027	-600.91426	-546.84469	692.07529	-764.20285	-724.01952	742.24054	-687.88701	-394.34135	1121.53951	-632.88562	-312.02787	1083.80773	-485.76431	-316.09561	1093.54516	-772.84716	-295.14238	989.22519	-605.42479	-293.63870	985.72829	-648.03695	-175.94754	916.08747	-384.99177	-154.79194	762.65350	-348.09687	-133.14051	831.75059	-293.34014	-6.17296	897.70488	-452.67006	41.36314	926.43353	-518.39975	67.96183	905.40555	-500.47380	-145.59526	922.82402	-858.38241	-147.04029	788.75028	-893.84514	-104.96941	853.99963	-932.12748	15.23830	920.90599	-777.46770	45.49988	943.38328	-713.52678	70.58802	928.28260	-735.20722	-639.20146	613.80552	-532.27775	-631.11675	607.68582	-729.49242	-631.45548	615.93839	-538.86847	-613.05311	618.54428	-718.49211	
